<svg width="35" height="36" viewBox="0 0 35 36" fill="none" xmlns="http://www.w3.org/2000/svg">
<g clip-path="url(#clip0_15_13)">
<path d="M13.9497 3.41038V4.91552H10.1009V0.253479H13.9497V1.90299H11.7505V3.41038H13.9497ZM17.9061 1.90299H19.4437V0.253479H15.5945C15.5945 0.253479 15.5945 1.08145 15.5945 1.90299C16.1095 2.41794 16.378 2.66445 17.1227 3.40922C16.6874 3.40922 15.5945 3.41066 15.5945 3.41066V4.91552H19.4437V3.41038L17.9061 1.90299ZM23.3616 1.90299H24.899V0.253479H21.0499C21.0499 0.253479 21.0499 1.08145 21.0499 1.90299C21.5647 2.41794 21.8334 2.66445 22.5781 3.40922C22.143 3.40922 21.0499 3.41066 21.0499 3.41066V4.91552H24.899V3.41038L23.3616 1.90299ZM29.9684 7.13118L27.6303 32.4574L17.5 35.1849L7.36937 32.4574L5.03162 7.13118H29.9684ZM25.2572 12.2808H17.4908H9.58708L9.96504 15.3392H17.4908H17.9135L17.4908 15.5151L10.2401 18.535L10.4806 21.5244L17.4908 21.5471L21.248 21.5591L21.0073 25.5452L17.4908 26.5353V26.5322L17.4619 26.5401L14.0656 25.6828L13.8595 23.2085H13.8483H10.6979H10.6868L11.0992 27.9852L17.4908 29.8752V29.8718L17.5023 29.8752L23.8597 28.0195L24.6846 18.5351H17.4908H17.473L17.4908 18.5274L24.9478 15.3392L25.2572 12.2808Z" fill="#D5D5D5"/>
</g>
<defs>
<clipPath id="clip0_15_13">
<rect width="35" height="35" fill="white" transform="translate(0 0.219238)"/>
</clipPath>
</defs>
</svg>
