<svg width="36" height="36" viewBox="0 0 36 36" fill="none" xmlns="http://www.w3.org/2000/svg">
<path fill-rule="evenodd" clip-rule="evenodd" d="M12.7385 13.8637C10.6578 13.8637 8.97118 15.5502 8.97118 17.6308C8.97118 19.7116 10.6579 21.3983 12.7385 21.3983H16.5059V17.7068C16.5056 17.6816 16.5054 17.6562 16.5054 17.6308C16.5054 17.6056 16.5056 17.5802 16.5059 17.555V13.8637H12.7385ZM16.5059 11.6762H12.7385C10.6579 11.6762 8.97118 9.98953 8.97118 7.90887C8.97118 5.82822 10.6579 4.14151 12.7385 4.14151H16.5059V11.6762ZM18.6934 4.14151V11.6762L22.4598 11.676C24.5404 11.676 26.2277 9.98946 26.2277 7.90887C26.2277 5.82822 24.541 4.14151 22.4602 4.14151H18.6934ZM22.4599 13.8635C20.3996 13.8637 18.7256 15.5178 18.6934 17.5704V17.6912C18.7256 19.7441 20.3998 21.3983 22.4602 21.3983C24.541 21.3983 26.2277 19.7116 26.2277 17.6308C26.2277 15.5502 24.5406 13.8635 22.4599 13.8635ZM12.7385 23.5858C10.6579 23.5858 8.97095 25.2728 8.97095 27.3535C8.97095 29.4343 10.6576 31.121 12.7383 31.121C14.819 31.121 16.5057 29.4343 16.5057 27.3535L16.5059 23.5858H12.7385Z" fill="#555151"/>
</svg>
