<svg width="25" height="25" viewBox="0 0 51 51" fill="none" xmlns="http://www.w3.org/2000/svg">
<path fill-rule="evenodd" clip-rule="evenodd" d="M25.6246 3.17176C20.3047 3.16902 15.1576 5.06006 11.105 8.50626C7.05227 11.9525 4.35866 16.7288 3.50645 21.9799C2.65424 27.231 3.69908 32.614 6.45389 37.165C9.20871 41.716 13.4936 45.1378 18.5412 46.8176C19.6662 47.0259 20.0725 46.3384 20.0725 45.7759C20.0725 45.2134 20.0725 43.8384 20.0725 41.9738C13.8225 43.328 12.5308 38.9738 12.5308 38.9738C12.1174 37.5962 11.2179 36.4154 9.99955 35.6509C7.9683 34.2655 10.1558 34.2863 10.1558 34.2863C10.8653 34.3856 11.5428 34.6456 12.1367 35.0463C12.7306 35.4471 13.2252 35.978 13.5829 36.5988C15.5829 40.0259 18.7912 39.0363 20.1037 38.4634C20.2073 37.3255 20.7133 36.2618 21.5308 35.4634C16.5516 34.9009 11.3225 32.9843 11.3225 24.4009C11.2895 22.1742 12.118 20.0209 13.635 18.3905C12.9458 16.4598 13.0241 14.3381 13.8537 12.4634C13.8537 12.4634 15.7287 11.8593 20.01 14.7551C23.6792 13.7551 27.5491 13.7551 31.2183 14.7551C35.4996 11.8593 37.3745 12.4634 37.3745 12.4634C38.1979 14.3396 38.2761 16.4588 37.5933 18.3905C39.1074 20.0219 39.9323 22.1755 39.8954 24.4009C39.8954 33.0051 34.6871 34.8905 29.6766 35.453C30.2143 35.9977 30.6283 36.6518 30.8908 37.3707C31.1532 38.0897 31.2578 38.8567 31.1975 39.6197C31.1975 42.6093 31.1975 45.0259 31.1975 45.7655C31.1975 46.5051 31.6037 47.0572 32.7391 46.8072C37.7816 45.1208 42.0597 41.6955 44.808 37.1439C47.5563 32.5923 48.5957 27.2113 47.74 21.9636C46.8844 16.7159 44.1897 11.9438 40.1379 8.50092C36.0861 5.05805 30.9416 3.16902 25.6246 3.17176Z" stroke="#9F00EA" stroke-width="2" stroke-linecap="round" stroke-linejoin="round"/>
</svg>
