<svg width="36" height="36" viewBox="0 0 36 36" fill="none" xmlns="http://www.w3.org/2000/svg">
<g clip-path="url(#clip0_18_20)">
<path fill-rule="evenodd" clip-rule="evenodd" d="M30.4719 0.730957H5.27062C3.53147 0.730957 2.11816 2.14039 2.11816 3.88342V32.5814C2.11816 34.3215 3.53147 35.731 5.27062 35.731H30.4719C32.2115 35.731 33.6205 34.3215 33.6205 32.5814V3.88342C33.6205 2.14039 32.2115 0.730957 30.4719 0.730957ZM31.8702 32.5814C31.8702 33.3541 31.2442 33.9797 30.4719 33.9797H5.27062C4.49885 33.9797 3.86845 33.3541 3.86845 32.5814V3.88342C3.86845 3.10777 4.49885 2.48125 5.27062 2.48125H30.4719C31.2442 2.48125 31.8702 3.10777 31.8702 3.88342V32.5814ZM9.9937 30.4829L13.9339 26.9814L9.9937 23.4808V30.4829ZM24.2232 16.2947C23.5148 15.5825 22.2216 14.7318 20.0588 14.7318C17.6859 14.7318 15.2418 15.3501 13.4949 15.9161V5.98275H9.99379V21.1602L12.4679 20.0393C12.5091 20.0209 16.4977 18.2328 20.0588 18.2328C21.8352 18.2328 22.2289 19.2109 22.2478 20.0282V30.4829H25.745V19.9831C25.7488 19.7585 25.7266 17.8165 24.2232 16.2947ZM19.6201 11.669H23.1211C24.7029 9.87711 25.5091 7.96946 25.7453 5.98241H22.2477C21.8579 7.96559 20.9956 9.8621 19.6201 11.669Z" fill="#D5D5D5"/>
</g>
<defs>
<clipPath id="clip0_18_20">
<rect width="35" height="35" fill="white" transform="translate(0.659851 0.730957)"/>
</clipPath>
</defs>
</svg>
