<svg width="35" height="36" viewBox="0 0 35 36" fill="none" xmlns="http://www.w3.org/2000/svg">
<g clip-path="url(#clip0_15_9)">
<path d="M7.42858 0.253479H9.00303V1.80906H10.4433V0.253479H12.0179V4.96406H10.4434V3.38659H9.00317V4.96406H7.42872V0.253479H7.42858ZM14.0883 1.81563H12.7023V0.253479H17.0495V1.81563H15.6629V4.96406H14.0884V1.81563H14.0883ZM17.7394 0.253479H19.3814L20.3912 1.90866L21.4001 0.253479H23.0423V4.96406H21.4742V2.62931L20.3911 4.30411H20.3641L19.2802 2.62931V4.96406H17.7394V0.253479ZM23.826 0.253479H25.4009V3.4071H27.6151V4.96406H23.826V0.253479ZM5.1261 7.11847L7.37827 32.3795L17.4848 35.185L27.6193 32.3755L29.8739 7.1184L5.1261 7.11847ZM25.176 13.1132L25.035 14.6839L24.9731 15.3803H24.9629H17.5H17.4892H13.1172L13.4004 18.5527H17.4892H17.5H23.8561H24.691L24.6154 19.3847L23.8874 27.5414L23.8408 28.0645L17.5 29.8219V29.8225L17.4858 29.8265L11.1394 28.0646L10.7052 23.2001H12.1387H13.8154L14.036 25.671L17.4864 26.6029L17.4892 26.602V26.6017L20.9449 25.6693L21.3042 21.6511H17.5H17.4892H10.5669L9.80543 13.1132L9.73127 12.2821H17.4892H17.5H25.2502L25.176 13.1132Z" fill="#D5D5D5"/>
</g>
<defs>
<clipPath id="clip0_15_9">
<rect width="35" height="35" fill="white" transform="translate(0 0.219238)"/>
</clipPath>
</defs>
</svg>
