<svg width="35" height="36" viewBox="0 0 35 36" fill="none" xmlns="http://www.w3.org/2000/svg">
<path d="M18.9361 16.3947H15.8638C15.8638 19.0438 15.8517 21.6764 15.8517 24.3288C15.8878 24.6886 15.9075 25.1075 15.9075 25.5308C15.9075 26.4168 15.8189 27.2819 15.6494 28.1175L15.6636 28.0344C15.213 28.9761 14.0503 28.8558 13.5231 28.6907C13.0299 28.426 12.6394 28.0246 12.3955 27.5368L12.3889 27.5214C12.3408 27.4186 12.2828 27.3311 12.2139 27.2524L12.215 27.2535L9.72018 28.7913C10.1216 29.6553 10.7417 30.3597 11.5106 30.853L11.5303 30.865C12.3649 31.3321 13.3624 31.6066 14.4233 31.6066C14.9527 31.6066 15.4667 31.5377 15.9556 31.4097L15.9141 31.4196C16.9947 31.1483 17.8752 30.4461 18.3794 29.5121L18.3892 29.4913C18.7819 28.4916 19.0083 27.3333 19.0083 26.1225C19.0083 25.6982 18.9799 25.2803 18.9263 24.8702L18.9317 24.9183C18.9481 22.1107 18.9317 19.3019 18.9317 16.4724L18.9361 16.3947ZM31.2146 26.2975C30.975 24.8013 30.0005 23.5435 27.1097 22.371C26.1035 21.8996 24.9856 21.5714 24.6531 20.8124C24.5842 20.6396 24.5449 20.4394 24.5449 20.2305C24.5449 20.0949 24.5613 19.9636 24.593 19.8379L24.5908 19.8488C24.8183 19.2472 25.3903 18.8261 26.0597 18.8261C26.2774 18.8261 26.4841 18.8699 26.6711 18.9497L26.6613 18.9454C27.265 19.1532 27.7419 19.595 27.9902 20.1616L27.9956 20.1758C29.4088 19.2516 29.4088 19.2516 30.3942 18.638C30.158 18.2344 29.8922 17.8844 29.5914 17.5694L29.5936 17.5716C28.7547 16.6813 27.568 16.1279 26.2511 16.1279C26.0641 16.1279 25.8792 16.1388 25.6988 16.1607L25.7206 16.1585L24.7571 16.2799C23.8208 16.4921 23.0213 16.9788 22.4241 17.6493L22.4208 17.6536C21.8356 18.381 21.4813 19.315 21.4813 20.3322C21.4813 21.7311 22.1517 22.9736 23.1875 23.7568L23.1985 23.7644C25.0644 25.1589 27.7922 25.4652 28.1411 26.7777C28.4692 28.3768 26.9522 28.8897 25.4538 28.7049C24.4071 28.4664 23.5496 27.7971 23.065 26.898L23.0552 26.8794L20.5538 28.3155C20.848 28.9018 21.2177 29.4027 21.6595 29.8303L21.6606 29.8314C24.0385 32.2311 29.9841 32.1086 31.0516 28.4588C31.1752 28.0607 31.2463 27.6035 31.2463 27.1299C31.2463 26.8018 31.2124 26.4813 31.1467 26.1728L31.1522 26.2035L31.2146 26.2975ZM1.09814 1.31738H33.9008V34.12H1.09814V1.31738Z" fill="#D5D5D5"/>
</svg>
