<svg width="27" height="28" viewBox="0 0 27 28" fill="none" xmlns="http://www.w3.org/2000/svg">
<path d="M22.5 4.99878L13.5 13.9988M22.5 4.99878V10.0613M22.5 4.99878H17.4375M21.375 14.5613V19.3988C21.375 20.6589 21.375 21.289 21.1297 21.7703C20.9141 22.1936 20.5698 22.5379 20.1465 22.7535C19.6652 22.9988 19.0351 22.9988 17.775 22.9988H8.1C6.83989 22.9988 6.20982 22.9988 5.72852 22.7535C5.30515 22.5379 4.96095 22.1936 4.74524 21.7703C4.5 21.289 4.5 20.6589 4.5 19.3988V9.72378C4.5 8.46367 4.5 7.8336 4.74524 7.3523C4.96095 6.92893 5.30515 6.58473 5.72852 6.36902C6.20982 6.12378 6.83988 6.12378 8.1 6.12378H12.9375" stroke="#9F00EA" stroke-width="2" stroke-linecap="round" stroke-linejoin="round"/>
</svg>