<svg width="100" height="101" viewBox="0 0 100 101" fill="none" xmlns="http://www.w3.org/2000/svg">
<circle cx="50.0078" cy="50.2578" r="49.5" fill="#101D22" stroke="#CEFF00"/>
<path d="M34.0131 70.2493C33.6265 70.2493 33.2785 70.114 32.9691 69.8433C32.6598 69.534 32.5051 69.1666 32.5051 68.7413V31.1573C32.5051 30.732 32.6598 30.384 32.9691 30.1133C33.2785 29.804 33.6265 29.6493 34.0131 29.6493H49.9051C53.6558 29.6493 56.9038 30.268 59.6491 31.5053C62.3945 32.704 64.5598 34.4826 66.1451 36.8413C67.7305 39.2 68.5811 42.1 68.6971 45.5413C68.7745 47.204 68.8131 48.6733 68.8131 49.9493C68.8131 51.2253 68.7745 52.6753 68.6971 54.2993C68.5425 57.934 67.7111 60.9306 66.2031 63.2893C64.7338 65.648 62.6458 67.4073 59.9391 68.5673C57.2325 69.6886 53.9845 70.2493 50.1951 70.2493H34.0131ZM44.9751 60.3893H49.9051C51.1811 60.3893 52.2638 60.1766 53.1531 59.7513C54.0425 59.326 54.7385 58.6686 55.2411 57.7793C55.7438 56.8513 56.0145 55.672 56.0531 54.2413C56.0918 53.12 56.1111 52.1146 56.1111 51.2253C56.1498 50.336 56.1498 49.4466 56.1111 48.5573C56.1111 47.668 56.0918 46.682 56.0531 45.5993C55.9758 43.4726 55.3571 41.926 54.1971 40.9593C53.0758 39.9926 51.5485 39.5093 49.6151 39.5093H44.9751V60.3893Z" fill="#CEFF00"/>
</svg>
