<svg width="35" height="36" viewBox="0 0 35 36" fill="none" xmlns="http://www.w3.org/2000/svg">
<path d="M17.3042 25.5779C17.3042 25.5779 17.3042 14.2455 17.6805 14.2466C17.9714 14.2466 18.3499 28.8646 18.3499 28.8646C17.8292 28.8033 17.3042 26.4594 17.3042 25.5779ZM24.5974 14.3779C23.5922 9.98536 21.3905 6.20864 18.3542 3.29379L18.3466 3.28723C17.9769 2.72286 17.6389 2.07536 17.3677 1.39286L17.3414 1.31848C17.3425 1.34036 17.3425 1.36661 17.3425 1.39286C17.3425 2.01083 17.0658 2.56317 16.6294 2.93395L16.6261 2.93614C12.717 6.25458 10.2299 11.1447 10.1478 16.6168V16.631C10.1467 16.6988 10.1467 16.7786 10.1467 16.8585C10.1467 22.2802 12.7553 27.0927 16.7858 30.1093L16.8284 30.1399L16.9236 30.2088C17.0993 31.5096 17.2495 32.8134 17.3742 34.12H18.0316C18.2131 32.4893 18.4581 31.0619 18.7786 29.6619L18.7283 29.9233C19.1614 29.6225 19.5399 29.3108 19.8931 28.9729L19.8899 28.9761C22.9534 26.1357 24.8653 22.0888 24.8653 17.5968C24.8653 17.53 24.8653 17.4644 24.8642 17.3977V17.4075C24.8609 16.3346 24.7636 15.2857 24.5788 14.2674L24.5952 14.3757L24.5974 14.3779Z" fill="#555151"/>
</svg>
