<svg width="15" height="15" viewBox="0 0 19 19" fill="none" xmlns="http://www.w3.org/2000/svg">
<path d="M9.80739 1.95251H9.46239C9.30303 1.96431 9.15161 2.0267 9.03019 2.13058C8.90877 2.23446 8.8237 2.3744 8.78739 2.53001C8.75044 2.68526 8.76398 2.84824 8.82602 2.99526C8.88807 3.14228 8.99539 3.26568 9.13239 3.34751C9.80043 3.74371 10.3529 4.30821 10.7345 4.98466C11.1162 5.66111 11.3137 6.42585 11.3074 7.20251C11.3061 8.0767 11.0503 8.93159 10.5711 9.66275C10.092 10.3939 9.4102 10.9697 8.60914 11.3197C7.80809 11.6697 6.92243 11.7788 6.06038 11.6337C5.19832 11.4886 4.3972 11.0955 3.75489 10.5025C3.63559 10.3893 3.48237 10.3184 3.31882 10.3008C3.15527 10.2832 2.99047 10.3198 2.8498 10.4051C2.70913 10.4903 2.60038 10.6195 2.54032 10.7726C2.48025 10.9257 2.47219 11.0944 2.51739 11.2525C2.85474 12.6171 3.56879 13.8594 4.57808 14.8377C5.58738 15.8161 6.8513 16.4911 8.22571 16.7858C9.60011 17.0805 11.0297 16.9831 12.3514 16.5045C13.6731 16.026 14.8337 15.1857 15.7009 14.0794C16.568 12.9732 17.1069 11.6455 17.2559 10.2477C17.4049 8.85001 17.1582 7.43853 16.5438 6.17427C15.9294 4.91001 14.972 3.84386 13.781 3.09741C12.5899 2.35095 11.213 1.95424 9.80739 1.95251Z" fill="#ceff00"/>
</svg>
