<svg width="15" height="15" viewBox="0 0 15 15" fill="none" xmlns="http://www.w3.org/2000/svg">
<path d="M7.49993 1.25H7.21243C7.07963 1.25983 6.95345 1.31182 6.85227 1.39839C6.75108 1.48495 6.68019 1.60157 6.64993 1.73125C6.61914 1.86062 6.63042 1.99643 6.68213 2.11895C6.73383 2.24147 6.82327 2.3443 6.93743 2.4125C7.49413 2.74266 7.95449 3.21308 8.27253 3.77679C8.59058 4.3405 8.75519 4.97778 8.74993 5.625C8.7489 6.35349 8.5357 7.0659 8.13639 7.67519C7.73707 8.28449 7.16894 8.76429 6.50139 9.05597C5.83385 9.34765 5.0958 9.43857 4.37742 9.31764C3.65904 9.19671 2.99144 8.86916 2.45618 8.375C2.35677 8.28062 2.22908 8.22155 2.09279 8.20687C1.9565 8.1922 1.81917 8.22274 1.70194 8.29378C1.58471 8.36483 1.49409 8.47245 1.44404 8.60006C1.39398 8.72767 1.38727 8.8682 1.42493 9C1.70606 10.1371 2.3011 11.1724 3.14218 11.9877C3.98326 12.803 5.03652 13.3655 6.18186 13.6111C7.3272 13.8567 8.5185 13.7755 9.61991 13.3767C10.7213 12.9779 11.6885 12.2777 12.4111 11.3558C13.1338 10.4339 13.5828 9.32745 13.707 8.16268C13.8312 6.99791 13.6256 5.82168 13.1136 4.76813C12.6016 3.71458 11.8038 2.82612 10.8113 2.20408C9.8187 1.58203 8.6713 1.25144 7.49993 1.25Z" fill="#00A3FF"/>
</svg>
