<svg width="36" height="36" viewBox="0 0 36 36" fill="none" xmlns="http://www.w3.org/2000/svg">
<g clip-path="url(#clip0_18_5)">
<path d="M17.3349 1.07267C17.7905 0.617054 18.5292 0.617054 18.9848 1.07267L21.2717 3.35948L17.0245 10.2203L10.7122 7.69537L17.3349 1.07267Z" fill="#D5D5D5"/>
<path d="M8.91715 9.49042L6.32141 12.0862L11.6731 18.8649L15.7775 12.2346L8.91715 9.49042Z" fill="#D5D5D5"/>
<path d="M4.66011 13.7474L1.00157 17.406C0.947196 17.4604 0.899307 17.5188 0.85791 17.5802L9.07634 19.3413L4.66011 13.7474Z" fill="#D5D5D5"/>
<path d="M2.19977 20.2542L4.54846 22.6028L7.29206 21.3454L2.19977 20.2542Z" fill="#D5D5D5"/>
<path d="M6.30853 24.3629L7.51977 25.5742L9.04637 23.108L6.30853 24.3629Z" fill="#D5D5D5"/>
<path d="M9.21472 27.2691L17.3349 35.3893C17.7905 35.8448 18.5292 35.8448 18.9848 35.3893L19.7406 34.6336L20.0165 33.1988L11.9046 22.9238L9.21472 27.2691Z" fill="#D5D5D5"/>
<path d="M22.6824 31.6917L28.487 25.8871L23.9842 24.9222L22.6824 31.6917Z" fill="#D5D5D5"/>
<path d="M30.4521 23.9219L34.6075 19.7666L25.6636 16.189L24.4249 22.6303L30.4521 23.9219Z" fill="#D5D5D5"/>
<path d="M35.4753 17.6005C35.4307 17.5316 35.3784 17.4663 35.3182 17.406L30.9712 13.0591L27.7792 14.5221L35.4753 17.6005Z" fill="#D5D5D5"/>
<path d="M29.2112 11.2991L27.0246 9.11243L26.3519 12.6095L29.2112 11.2991Z" fill="#D5D5D5"/>
<path d="M25.0317 7.11954L22.9666 5.05444L19.2241 11.1001L23.9061 12.9729L25.0317 7.11954Z" fill="#D5D5D5"/>
<path d="M14.6559 20.537L23.205 16.6187L22.1429 22.1413L14.6559 20.537Z" fill="#D5D5D5"/>
<path d="M14.9221 22.9803L21.7022 24.4332L20.5988 30.1709L14.9221 22.9803Z" fill="#D5D5D5"/>
<path d="M15.096 17.7685L21.8609 14.668L17.9771 13.1144L15.096 17.7685Z" fill="#D5D5D5"/>
</g>
<defs>
<clipPath id="clip0_18_5">
<rect width="35" height="35" fill="white" transform="translate(0.659851 0.730957)"/>
</clipPath>
</defs>
</svg>
