<svg width="35" height="36" viewBox="0 0 35 36" fill="none" xmlns="http://www.w3.org/2000/svg">
<path d="M27.2027 20.4438C27.2027 17.8472 25.4472 17.1549 21.7536 16.6671C18.0206 16.1738 17.6411 15.9179 17.6411 15.045C17.6411 14.3232 17.9627 13.3596 20.7277 13.3596C23.1974 13.3596 24.1074 13.8911 24.4825 15.5558C24.5175 15.7122 24.6553 15.8271 24.8205 15.8282H26.3802C26.4808 15.8271 26.5705 15.7844 26.6339 15.7177C26.6919 15.6554 26.7269 15.5722 26.7269 15.4804C26.7269 15.4694 26.7269 15.4596 26.7258 15.4486V15.4497C26.4841 12.5819 24.5788 11.2454 20.7288 11.2454C17.3009 11.2454 15.2556 12.6913 15.2556 15.1172C15.2556 17.7488 17.2889 18.475 20.5789 18.801C24.5153 19.186 24.8205 19.7613 24.8205 20.5357C24.8205 21.8788 23.742 22.4519 21.2089 22.4519C18.0283 22.4519 17.3283 21.6535 17.0931 20.0708C17.0658 19.9035 16.9225 19.7766 16.7486 19.7766H15.1933C15.1922 19.7766 15.1922 19.7766 15.1911 19.7766C15.0008 19.7766 14.8466 19.9308 14.8466 20.1211V20.1222C14.8466 22.1479 15.948 24.5618 21.2089 24.5618C25.0195 24.5629 27.2027 23.0644 27.2027 20.4438ZM17.4978 34.1211H17.4967C17.033 34.1211 16.5988 33.9953 16.2258 33.7766L16.2378 33.7832L12.2249 31.4086C11.6266 31.0739 11.9186 30.9547 12.1155 30.8847C12.8078 30.666 13.4094 30.386 13.965 30.0393L13.9311 30.0589C13.9683 30.0414 14.0131 30.0305 14.0591 30.0305C14.1225 30.0305 14.1805 30.0502 14.2297 30.083L14.2286 30.0819L17.3119 31.9118C17.3655 31.9413 17.43 31.9577 17.4978 31.9577C17.5656 31.9577 17.6302 31.9402 17.6859 31.9107L17.6838 31.9118L29.7052 24.9741C29.8156 24.9063 29.8878 24.7871 29.8878 24.6504V10.7761C29.8878 10.6361 29.8134 10.5147 29.7019 10.4458L29.6997 10.4447L17.6838 3.51254C17.6302 3.48191 17.5667 3.46441 17.4989 3.46441C17.4311 3.46441 17.3666 3.48191 17.3119 3.51363L17.3141 3.51254L5.30142 10.4469C5.18767 10.5147 5.11329 10.6372 5.1111 10.7761V24.6493C5.1111 24.7871 5.18767 24.9063 5.29923 24.9697L5.30142 24.9708L8.5936 26.8729C10.3797 27.7664 11.4745 26.7143 11.4745 25.6566V11.9596C11.4745 11.7693 11.6288 11.6139 11.8202 11.6139C11.8213 11.6139 11.8234 11.6139 11.8245 11.6139H13.3481C13.5395 11.6139 13.6959 11.7682 13.697 11.9596V25.6566C13.7145 25.7857 13.7255 25.9355 13.7255 26.0875C13.7255 27.9272 12.2347 29.418 10.395 29.418C10.3053 29.418 10.2156 29.4147 10.127 29.4071L10.1391 29.4082C10.1128 29.4082 10.0811 29.4093 10.0494 29.4093C9.05845 29.4093 8.13204 29.1293 7.34782 28.6425L7.3697 28.6557L4.21532 26.8422C3.45626 26.3949 2.95532 25.5811 2.95532 24.6504V10.7772C2.95532 9.84645 3.45626 9.03379 4.20329 8.59301L4.21532 8.58645L16.2367 1.64004C16.6009 1.4366 17.0363 1.31738 17.5 1.31738C17.9638 1.31738 18.398 1.4366 18.7764 1.6466L18.7633 1.64004L30.7825 8.58645C31.5427 9.03379 32.0447 9.84645 32.0458 10.7772V24.6504C32.0436 25.5811 31.5427 26.3949 30.7945 26.8357L30.7825 26.8422L18.7633 33.7832C18.4024 33.9954 17.9692 34.1211 17.5066 34.1211C17.5044 34.1211 17.5 34.1211 17.4978 34.1211Z" fill="#555151"/>
</svg>
