<svg width="24" height="24" viewBox="0 0 24 24" fill="none" xmlns="http://www.w3.org/2000/svg">
<path d="M4.43992 18.0722C4.43992 18.4882 4.58392 18.8402 4.87192 19.1282C5.15992 19.4162 5.51992 19.5682 5.95192 19.5842H8.97592C9.39192 19.5842 9.75192 19.4322 10.0559 19.1282C10.3599 18.8242 10.5039 18.4722 10.4879 18.0722V5.95216C10.4879 5.53616 10.3439 5.17616 10.0559 4.87216C9.76792 4.56816 9.40792 4.42416 8.97592 4.44016H5.95192C5.53592 4.44016 5.17592 4.58416 4.87192 4.87216C4.56792 5.16016 4.42392 5.52016 4.43992 5.95216V18.0722ZM13.5119 18.0722C13.5119 18.4882 13.6639 18.8402 13.9679 19.1282C14.2719 19.4162 14.6239 19.5682 15.0239 19.5842H18.0479C18.4639 19.5842 18.8239 19.4322 19.1279 19.1282C19.4319 18.8242 19.5759 18.4722 19.5599 18.0722V5.95216C19.5599 5.53616 19.4159 5.17616 19.1279 4.87216C18.8399 4.56816 18.4799 4.42416 18.0479 4.44016H15.0239C14.6079 4.44016 14.2559 4.58416 13.9679 4.87216C13.6799 5.16016 13.5279 5.52016 13.5119 5.95216V18.0722Z" fill="#EA8D00"/>
</svg>
