<svg width="36" height="36" viewBox="0 0 36 36" fill="none" xmlns="http://www.w3.org/2000/svg">
<g clip-path="url(#clip0_13_20)">
<path d="M29.243 0.165283H5.95532C2.75323 0.165283 0.133362 2.78516 0.133362 5.98725V29.275C0.133362 32.4771 2.75323 35.097 5.95532 35.097H29.2431C32.4452 35.097 35.0651 32.4771 35.0651 29.275V5.98725C35.065 2.78516 32.4451 0.165283 29.243 0.165283ZM16.8697 17.9404C15.6573 19.1528 13.7518 19.7221 11.599 19.7221C11.0298 19.7221 10.5102 19.6972 10.1142 19.623V25.9083H7.09556V9.45279C8.18432 9.25489 9.69383 9.10628 11.7474 9.10628C13.9747 9.10628 15.6079 9.57646 16.672 10.4674C17.6618 11.2841 18.3051 12.5955 18.3051 14.1544C18.305 15.7382 17.8101 17.0495 16.8697 17.9404ZM23.2034 26.1559C21.7433 26.1559 20.4319 25.8094 19.5411 25.3144L20.1349 23.1122C20.8277 23.5328 22.1393 23.9783 23.2281 23.9783C24.5642 23.9783 25.1583 23.4339 25.1583 22.642C25.1583 21.8256 24.6634 21.4047 23.1786 20.8851C20.8277 20.0685 19.8382 18.7818 19.8628 17.3713C19.8628 15.2432 21.6197 13.5853 24.4158 13.5853C25.7522 13.5853 26.9152 13.9318 27.6079 14.3028L27.014 16.4557C26.4944 16.1588 25.5292 15.7628 24.4653 15.7628C23.3764 15.7628 22.7826 16.2825 22.7826 17.0248C22.7826 17.792 23.3518 18.1633 24.886 18.7076C27.0635 19.4994 28.0781 20.6129 28.1029 22.3947C28.1028 24.5722 26.3955 26.1559 23.2034 26.1559ZM15.2613 14.2781C15.2613 16.233 13.8754 17.3465 11.599 17.3465C10.9804 17.3465 10.4855 17.3218 10.1142 17.2229V11.5809C10.4361 11.5067 11.0299 11.4325 11.8714 11.4325C13.9747 11.4325 15.2613 12.4223 15.2613 14.2781Z" fill="#D5D5D5"/>
</g>
<defs>
<clipPath id="clip0_13_20">
<rect width="35" height="35" fill="white" transform="translate(0.0991821 0.131104)"/>
</clipPath>
</defs>
</svg>
