<svg width="36" height="36" viewBox="0 0 36 36" fill="none" xmlns="http://www.w3.org/2000/svg">
<path d="M27.2325 11.5908C27.2215 11.7603 27.1428 11.9102 27.0236 12.0141L27.0225 12.0152C26.8792 12.1716 26.6878 12.281 26.4712 12.3193L26.4658 12.3203C26.4351 12.3247 26.399 12.328 26.363 12.328C26.3619 12.328 26.3597 12.328 26.3586 12.328C26.0173 12.328 25.7242 12.1213 25.5995 11.8249L25.5973 11.8194C25.5645 11.5777 25.9583 11.395 26.364 11.3382C26.7698 11.2813 27.1997 11.3502 27.2325 11.5908ZM16.3934 12.153C16.2611 12.4932 15.9362 12.7305 15.5556 12.7305C15.5512 12.7305 15.548 12.7305 15.5436 12.7305H15.5447C15.5053 12.7305 15.4681 12.7272 15.4298 12.7228H15.4342C15.1487 12.6714 14.9059 12.5139 14.7451 12.2941L14.743 12.2908C14.6533 12.188 14.5986 12.0513 14.5986 11.9036V11.9025C14.6117 11.8183 14.6587 11.7461 14.7244 11.7002L14.7255 11.6991C14.8917 11.6072 15.0908 11.5536 15.303 11.5536C15.3937 11.5536 15.4823 11.5635 15.5676 11.5821L15.56 11.581C15.992 11.6411 16.4383 11.8457 16.3956 12.153H16.3934ZM28.4444 20.5125L28.3273 20.366L28.2792 20.3058C28.779 19.3805 29.0722 18.2791 29.0722 17.111C29.0722 16.5772 29.0109 16.0588 28.895 15.56L28.9037 15.606C28.8272 15.1105 28.7823 14.5385 28.7823 13.9566C28.7823 13.9489 28.7823 13.9413 28.7823 13.9336C28.8075 13.3857 28.8655 12.8738 28.9551 12.3718L28.9442 12.4439C29.0415 11.9364 29.0973 11.3524 29.0973 10.7552C29.0973 10.6994 29.0973 10.6447 29.0962 10.59V10.5988C29.1094 10.5452 29.117 10.485 29.117 10.4216C29.117 10.3921 29.1148 10.3636 29.1126 10.3352V10.3385C28.6751 8.61035 27.8537 7.113 26.7414 5.88363L26.749 5.89238C25.7526 4.72425 24.5276 3.78253 23.1397 3.13285L23.074 3.1055C23.8353 2.94253 24.7103 2.84957 25.6072 2.84957C25.6892 2.84957 25.7712 2.85066 25.8533 2.85175H25.8412C25.8905 2.85066 25.9473 2.84957 26.0053 2.84957C28.6062 2.84957 30.9228 4.06253 32.4212 5.95363L32.4344 5.97113C32.465 6.0105 32.4956 6.05535 32.5219 6.10238L32.5251 6.10785C33.5139 7.96066 32.1478 14.685 28.4433 20.5147L28.4444 20.5125ZM28.1315 10.9269C28.114 11.4246 28.0615 11.896 27.9784 12.3564L27.9872 12.2963C27.9019 12.7611 27.8406 13.3146 27.8155 13.8768L27.8144 13.9041C27.8144 13.9227 27.8144 13.9435 27.8144 13.9653C27.8144 14.5855 27.8603 15.1947 27.95 15.7897L27.9412 15.723C28.0342 16.1353 28.0878 16.6078 28.0878 17.0946C28.0878 17.9291 27.9303 18.7275 27.6426 19.4592L27.658 19.4155C27.5748 19.2722 27.4884 19.0994 27.413 18.92L27.4009 18.8883C27.3287 18.7144 27.1723 18.4333 26.9569 18.0461C26.1158 16.5368 24.1448 13.0028 25.1533 11.5613C25.6717 10.8197 26.9864 10.788 28.1305 10.928L28.1315 10.9269ZM27.3539 23.598C27.2981 22.4616 27.7214 22.3424 28.1698 22.2166C28.2318 22.1998 28.2934 22.1812 28.3547 22.1608C28.4094 22.2089 28.4695 22.256 28.5319 22.2975L28.5373 22.3008C29.2155 22.5994 30.0051 22.7722 30.8364 22.7722C31.4839 22.7722 32.1062 22.6672 32.6881 22.4725L32.6465 22.4846C32.2703 22.805 31.8415 23.0796 31.3778 23.2918L31.3439 23.306C30.6395 23.5947 29.8225 23.7752 28.9672 23.8025H28.9562C28.8261 23.8222 28.6762 23.8342 28.5242 23.8342C28.102 23.8342 27.6995 23.7467 27.3353 23.5893L27.355 23.5969L27.3539 23.598ZM26.1365 25.8139C26.1136 26.0557 26.0873 26.328 26.0523 26.6288L25.8533 27.2282C25.838 27.2719 25.8292 27.3222 25.8281 27.3747C25.8292 27.4043 25.8292 27.4382 25.8292 27.4721C25.8292 27.8603 25.7712 28.2366 25.664 28.5899L25.6706 28.5625C25.5437 28.988 25.4562 29.4813 25.4267 29.9899L25.4256 30.0074C25.3687 31.8492 23.9436 33.34 22.1356 33.5008L22.1214 33.5019C20.0498 33.946 19.6823 32.8227 19.3586 31.8317C19.3258 31.7282 19.2908 31.625 19.2536 31.5222C19.0786 30.8091 18.978 29.9899 18.978 29.1477C18.978 28.7539 18.9998 28.3657 19.0425 27.9828L19.0381 28.0299C19.0447 27.8899 19.048 27.7247 19.048 27.5596C19.048 26.4374 18.8795 25.3546 18.5656 24.3352L18.5864 24.4128C18.5922 24.0118 18.601 23.6057 18.6126 23.1944C18.6126 23.1911 18.6126 23.1857 18.6126 23.1813C18.6126 23.131 18.605 23.0828 18.5908 23.0369L18.5919 23.0402C18.5765 22.9308 18.5558 22.8346 18.5284 22.7416L18.5317 22.7558C18.3775 22.186 17.9892 21.7266 17.4773 21.4827L17.4653 21.4772C17.2728 21.381 17.0453 21.3241 16.8036 21.3241C16.6898 21.3241 16.5794 21.3361 16.4733 21.3602L16.4831 21.358C16.6231 20.8439 16.7675 20.4239 16.9337 20.0149L16.9053 20.0947L16.9775 19.9011C17.0584 19.6824 17.1601 19.456 17.2684 19.2164C17.8656 17.9871 18.2145 16.5422 18.2145 15.0153C18.2145 13.9894 18.057 13.0007 17.765 12.071L17.7836 12.1399C17.5834 10.928 16.5422 10.0147 15.2887 10.0147C15.0919 10.0147 14.8994 10.0377 14.7156 10.0803L14.7331 10.0771C13.8625 10.1908 13.075 10.4468 12.3586 10.823L12.3969 10.8044C12.3064 10.8503 12.2171 10.8977 12.1289 10.9466C12.2284 8.59831 13.1089 6.47316 14.5144 4.80519L14.5012 4.8205C14.6303 4.69035 14.7659 4.56675 14.9059 4.45082L14.9158 4.44316C14.9912 4.42785 15.058 4.39722 15.1148 4.35457L15.1137 4.35566C16.0905 3.64035 17.3165 3.2105 18.6433 3.2105C18.7494 3.2105 18.8544 3.21269 18.9583 3.21816L18.944 3.21707C19.5194 3.22582 20.075 3.26519 20.6219 3.33519L20.5486 3.32753C22.7831 3.75738 24.6906 4.92769 26.0523 6.56831L26.0644 6.58363C26.8825 7.5341 27.5453 8.64753 27.9959 9.86269L28.02 9.93816C27.7389 9.86269 27.4162 9.81894 27.0837 9.81894C26.0086 9.81894 25.0406 10.2739 24.3603 11.0013L24.3581 11.0035C23.0019 12.9427 25.1008 16.7074 26.1092 18.5164C26.294 18.8478 26.4537 19.1344 26.504 19.2558C26.7884 19.9132 27.1461 20.4786 27.5759 20.9807L27.5683 20.9719C27.6634 21.0911 27.7553 21.206 27.8264 21.3066C27.2784 21.4641 26.294 21.8294 26.3837 23.6538C26.3673 23.8671 26.3258 24.2641 26.27 24.7672C26.2109 25.0614 26.1628 25.4202 26.1355 25.7844L26.1333 25.815L26.1365 25.8139ZM16.0719 19.5643L15.9997 19.7568C15.8498 20.1155 15.6945 20.5716 15.5655 21.0386L15.5447 21.1272C14.568 21.113 13.6908 20.6952 13.0717 20.0324L13.0695 20.0302C12.3783 19.3007 11.9539 18.313 11.9539 17.2258C11.9539 17.0093 11.9703 16.7971 12.0031 16.5893L11.9998 16.6122C12.1059 15.8247 12.1672 14.9158 12.1672 13.9916C12.1672 13.4425 12.1453 12.8989 12.1037 12.3608L12.1081 12.4319C12.1015 12.3149 12.095 12.2121 12.0917 12.1311C12.9722 11.4628 14.0867 11.0593 15.2953 11.0593C15.4397 11.0593 15.5819 11.0647 15.723 11.0757L15.7044 11.0746C16.3103 11.2157 16.7664 11.7177 16.8386 12.3357L16.8397 12.3422C17.1 13.1385 17.2498 14.055 17.2498 15.0055C17.2498 16.3902 16.9315 17.7005 16.365 18.8686L16.388 18.8161C16.2731 19.071 16.1648 19.3116 16.0719 19.5621V19.5643ZM13.2095 25.0155C12.9853 24.9586 12.7884 24.8755 12.609 24.7672L12.6189 24.7727C12.807 24.6928 13.029 24.6261 13.2587 24.5835L13.2795 24.5802C15.0339 24.2192 15.304 23.9644 15.8958 23.213C16.0314 23.0413 16.1845 22.8455 16.3978 22.6082C16.4415 22.5589 16.4765 22.4999 16.4973 22.4343L16.4984 22.431C16.7314 22.2243 16.8703 22.2811 17.0956 22.3741C17.3439 22.5108 17.5276 22.7416 17.5987 23.0161L17.5998 23.0238C17.625 23.0949 17.6403 23.1758 17.6403 23.2611C17.6403 23.3978 17.602 23.5258 17.5364 23.6341L17.5386 23.6308C16.8331 24.5955 15.7055 25.2157 14.4334 25.2157C13.9959 25.2157 13.5748 25.1424 13.1822 25.0068L13.2095 25.0155ZM4.99873 18.0625C4.2867 15.8914 3.70701 13.3157 3.36467 10.6644L3.3417 10.4468C3.27498 10.0946 3.2378 9.68878 3.2378 9.27535C3.2378 7.30003 4.10076 5.52707 5.47014 4.313L5.4767 4.30753C7.98686 2.53238 12.0917 3.56816 13.8253 4.12925L13.8122 4.14238C12.1333 6.18988 11.115 8.83675 11.115 11.7199C11.115 11.8183 11.1161 11.9168 11.1183 12.0152V12.001C11.1183 12.1136 11.127 12.2733 11.1401 12.4921C11.1762 12.9405 11.197 13.4633 11.197 13.9916C11.197 14.8688 11.1401 15.7328 11.0286 16.5805L11.0395 16.481C11.0034 16.7063 10.9837 16.9666 10.9837 17.2313C10.9837 18.5777 11.5109 19.8016 12.3717 20.7061L12.3695 20.7039C12.4796 20.8191 12.5945 20.9274 12.714 21.0288C12.2405 21.5363 11.2101 22.6585 10.1142 23.9775C9.33873 24.9105 8.80279 24.7311 8.6267 24.6732C7.87748 24.2707 7.29014 23.6461 6.94451 22.8893L6.93467 22.8652C6.18655 21.4958 5.52811 19.9033 5.04248 18.2364L4.99983 18.0647L4.99873 18.0625ZM33.959 21.953C33.9383 21.8907 33.912 21.8371 33.8803 21.7878L33.8825 21.7911C33.6922 21.4313 33.2306 21.3241 32.5055 21.4739C30.2458 21.9399 29.3708 21.6533 29.0536 21.4477C30.8222 18.7658 32.2451 15.6596 33.1562 12.3411L33.2098 12.1125C33.5806 10.6764 34.3003 7.29675 33.3772 5.64519C33.3126 5.52269 33.2437 5.41769 33.1672 5.31925L33.1705 5.32363C31.4609 3.18535 28.8523 1.828 25.9265 1.828C25.8434 1.828 25.7603 1.8291 25.6783 1.83128H25.6903C25.6444 1.83019 25.5908 1.83019 25.5361 1.83019C24.0683 1.83019 22.6562 2.07082 21.3383 2.51378L21.4312 2.48644C21.1972 2.44269 20.962 2.4055 20.7258 2.37488C20.192 2.27316 19.574 2.20972 18.9419 2.19988H18.9331C18.8423 2.1955 18.7362 2.19332 18.629 2.19332C17.1908 2.19332 15.8531 2.62425 14.7386 3.36472L14.7648 3.34832C13.5934 2.90972 8.21983 1.09957 4.89373 3.4555C3.26514 4.84456 2.2403 6.89753 2.2403 9.19113C2.2403 9.6341 2.27858 10.0683 2.35186 10.4905L2.3453 10.4457C2.7117 13.3966 3.3067 16.0522 4.1303 18.6061L4.04389 18.2955C4.58311 20.1724 5.2503 21.7966 6.06951 23.3267L6.0028 23.1911C6.47639 24.2674 7.29561 25.1205 8.31717 25.6247L8.34561 25.6378C8.52936 25.6914 8.74045 25.7232 8.9592 25.7232C9.77076 25.7232 10.4817 25.2955 10.8798 24.6524L10.8853 24.6425C11.9801 23.3257 13.0586 22.1466 13.5431 21.626C14.0922 21.9311 14.743 22.1193 15.4364 22.1411H15.443L15.444 22.1466C15.3288 22.2837 15.2162 22.4229 15.1061 22.5644C14.6423 23.1528 14.5461 23.2743 13.0553 23.5816C12.6309 23.6691 11.5044 23.901 11.488 24.6907C11.488 24.695 11.488 24.6994 11.488 24.7049C11.488 24.8657 11.535 25.0155 11.6159 25.1413L11.6137 25.138C11.955 25.57 12.4351 25.8796 12.9853 25.9999L13.0017 26.0032C13.4381 26.1453 13.9412 26.2274 14.4619 26.2274C15.665 26.2274 16.7653 25.7921 17.6162 25.0702L17.6097 25.0757C17.5834 25.5328 17.5692 26.0688 17.5692 26.608C17.5692 28.5253 17.7562 30.4 18.1117 32.2135L18.0822 32.0308C18.5 33.5325 19.8497 34.6197 21.4553 34.6339H21.4575C21.8611 34.6307 22.2515 34.5836 22.6278 34.4983L22.5917 34.5049C24.6906 34.3178 26.3444 32.64 26.4931 30.5466L26.4942 30.5335C26.6998 29.3435 27.0433 26.6036 27.2303 24.928C27.239 24.8569 27.2675 24.7935 27.309 24.741L27.308 24.7421C27.309 24.741 27.4031 24.6775 27.892 24.7836L27.9522 24.7935L28.2989 24.8241L28.3197 24.8252C28.4236 24.8296 28.5461 24.8328 28.6686 24.8328C29.7886 24.8328 30.8583 24.6141 31.835 24.216L31.7792 24.2357C32.6597 23.8277 34.2467 22.8247 33.959 21.953Z" fill="#D5D5D5"/>
</svg>
