<svg width="35" height="36" viewBox="0 0 35 36" fill="none" xmlns="http://www.w3.org/2000/svg">
<path d="M15.6549 24.5125C16.2564 24.5398 16.8711 24.5595 17.4935 24.5595C18.1224 24.5595 18.7436 24.5464 19.3528 24.5125C18.7436 25.3 18.1421 25.9967 17.5055 26.6606L17.5142 26.6519C16.881 25.9956 16.2728 25.2978 15.6997 24.5716L15.6549 24.5125ZM9.42268 23.6375C10.6072 23.9383 12.0521 24.1942 13.5264 24.3517L13.6697 24.3637C14.5721 25.603 15.4842 26.6934 16.4631 27.7194L16.4511 27.7062C15.0172 29.3064 13.0824 30.4308 10.8938 30.8344L10.8336 30.8431C10.8292 30.8431 10.8249 30.8431 10.8205 30.8431C10.5492 30.8431 10.2933 30.7764 10.0691 30.6583L10.0778 30.6626C9.16784 30.1431 8.77299 28.1558 9.08034 25.6019C9.15362 24.973 9.27393 24.3112 9.42159 23.6364L9.42268 23.6375ZM25.5916 23.6233C25.7207 24.1417 25.8421 24.8023 25.9285 25.4739L25.9383 25.568C26.2522 28.1208 25.865 30.1059 24.9627 30.6364C24.7614 30.748 24.5208 30.8136 24.2649 30.8136C24.2397 30.8136 24.2146 30.8125 24.1894 30.8114H24.1927C21.9472 30.4012 20.0135 29.2845 18.5828 27.7041L18.5752 27.6953C19.5366 26.6858 20.4422 25.5975 21.2724 24.4523L21.3358 24.3605C22.9502 24.192 24.3972 23.9317 25.8071 23.5762L25.5916 23.6222V23.6233ZM10.7013 19.5414C10.9747 20.0773 11.2613 20.6111 11.5763 21.147C11.8905 21.68 12.2117 22.2007 12.5399 22.7089C11.5905 22.57 10.6739 22.395 9.79784 22.1817C10.0439 21.3209 10.3524 20.4295 10.7002 19.5392L10.7013 19.5414ZM24.2944 19.5141C24.6564 20.412 24.9638 21.3078 25.2186 22.1762C24.3436 22.3906 23.4194 22.5722 22.4635 22.7089C22.7916 22.1959 23.1197 21.6676 23.4271 21.1262C23.7344 20.5936 24.0221 20.0489 24.2966 19.513L24.2944 19.5141ZM8.33331 13.6636C8.81018 15.2801 9.32206 16.632 9.91815 17.9358L9.83612 17.7367C9.32643 18.8359 8.82221 20.1801 8.40877 21.5637L8.3519 21.788C7.57971 21.5506 6.95846 21.3176 6.35362 21.0562L6.4794 21.1044C4.11252 20.097 2.58127 18.7725 2.58127 17.7225C2.58127 16.6725 4.11252 15.3414 6.4794 14.3384C7.05362 14.0923 7.68362 13.8703 8.33331 13.6636ZM26.6416 13.6581C27.3033 13.8626 27.9322 14.0912 28.5207 14.3384C30.8875 15.3501 32.4188 16.6725 32.4188 17.7225C32.4122 18.7725 30.881 20.1003 28.5141 21.1055C27.9399 21.3516 27.311 21.5725 26.6624 21.7792C26.1811 20.1572 25.6692 18.8064 25.0753 17.5005L25.1585 17.7061C25.666 16.608 26.1713 15.2637 26.5836 13.8801L26.6416 13.6548V13.6581ZM22.4547 12.7361C23.4052 12.8772 24.3207 13.05 25.1967 13.2655C24.9507 14.1295 24.6433 15.0176 24.2944 15.908C24.021 15.3753 23.7344 14.8383 23.4194 14.3034C23.1121 13.7675 22.7839 13.2458 22.4558 12.7372L22.4547 12.7361ZM12.5322 12.7361C12.2041 13.2512 11.876 13.7784 11.5697 14.322C11.2624 14.8547 10.9747 15.3906 10.7013 15.9266C10.3392 15.0297 10.0319 14.1361 9.77706 13.2655C10.6521 13.0609 11.5741 12.8783 12.5311 12.7383L12.5322 12.7361ZM17.5 12.3883C18.5117 12.3883 19.5191 12.4342 20.51 12.5151C21.0649 13.3107 21.6038 14.158 22.1266 15.057C22.6348 15.932 23.0986 16.8187 23.5178 17.717C23.0967 18.6128 22.6352 19.5075 22.1332 20.3825C21.6136 21.2848 21.0766 22.1434 20.5199 22.9386C19.5246 23.025 18.5161 23.072 17.4989 23.072C16.4872 23.072 15.4799 23.0239 14.4889 22.9451C13.9344 22.15 13.393 21.2991 12.8724 20.4033C12.3641 19.5283 11.9004 18.6416 11.4811 17.7433C11.8956 16.8453 12.3638 15.9484 12.8658 15.0723C13.3853 14.17 13.9224 13.3147 14.4791 12.5195C15.4744 12.432 16.4828 12.3861 17.5 12.3861V12.3883ZM17.4792 8.79968C18.1136 9.45593 18.7217 10.1526 19.2938 10.8789L19.3375 10.9369C18.736 10.9095 18.1213 10.8909 17.4989 10.8909C16.87 10.8909 16.2488 10.9041 15.6396 10.9369C16.2477 10.1494 16.8492 9.45265 17.4869 8.78874L17.4781 8.79749L17.4792 8.79968ZM10.8063 4.6303C13.0517 5.04155 14.9844 6.15827 16.4161 7.73765L16.4238 7.7464C15.4624 8.75702 14.5567 9.8453 13.7266 10.9926L13.6631 11.0845C12.0499 11.2519 10.6028 11.51 9.19409 11.8655L9.40846 11.8195C9.25534 11.1501 9.14159 10.5016 9.06174 9.87921C8.74784 7.3264 9.13502 5.34124 10.0374 4.81296C10.2627 4.70686 10.5263 4.64124 10.8041 4.63249H10.8074L10.8063 4.6303ZM24.161 4.60296V4.61171C24.1752 4.61171 24.1916 4.61062 24.2091 4.61062C24.4705 4.61062 24.7166 4.67515 24.9331 4.7889L24.9244 4.78452C25.8344 5.30624 26.2292 7.29249 25.9219 9.84749C25.8486 10.4764 25.7283 11.1392 25.5807 11.8151C24.3939 11.5111 22.9491 11.2541 21.4747 11.0976L21.3347 11.0856C20.4313 9.8453 19.5191 8.75483 18.5402 7.7278L18.5533 7.74093C19.9872 6.14405 21.9188 5.01968 24.103 4.6139L24.1642 4.60405L24.161 4.60296ZM24.1675 3.11327C21.4966 3.51905 19.1844 4.81624 17.4956 6.68765L17.4869 6.69749C15.7861 4.82718 13.4739 3.53874 10.8686 3.14827L10.8074 3.14062C10.7931 3.14062 10.7757 3.14062 10.7582 3.14062C10.2211 3.14062 9.7169 3.28171 9.28049 3.5289L9.2958 3.52124C7.41674 4.60515 6.99565 7.98265 7.96581 12.2209C3.80518 13.5061 1.09924 15.5601 1.09924 17.7247C1.09924 19.898 3.8194 21.9575 7.99206 23.2328C7.02956 27.4875 7.4594 30.8705 9.34284 31.9533C9.75627 32.1906 10.2528 32.3295 10.7811 32.3295C10.8052 32.3295 10.8292 32.3295 10.8522 32.3284H10.8489C13.5199 31.9226 15.8321 30.6244 17.5208 28.7519L17.5296 28.742C19.2303 30.6134 21.5425 31.9019 24.1478 32.2923L24.2091 32.3C24.2255 32.3 24.2463 32.3 24.266 32.3C24.7997 32.3 25.3017 32.16 25.736 31.9161L25.7207 31.9237C27.5986 30.8409 28.0208 27.4634 27.0507 23.2241C31.196 21.9498 33.9019 19.8914 33.9019 17.7236C33.9019 15.5503 31.1817 13.4908 27.0091 12.2122C27.9716 7.96187 27.5417 4.57562 25.6583 3.49171C25.2405 3.25218 24.7396 3.11108 24.2058 3.11108C24.1916 3.11108 24.1774 3.11108 24.1631 3.11108H24.1653L24.1675 3.11327ZM20.5483 17.7247C20.5483 19.4123 19.18 20.7806 17.4924 20.7806C15.8047 20.7806 14.4364 19.4123 14.4364 17.7247C14.4364 16.037 15.8047 14.6687 17.4924 14.6687C18.3367 14.6687 19.1002 15.0111 19.6536 15.5634C20.2071 16.1169 20.5483 16.8803 20.5483 17.7247Z" fill="#D5D5D5"/>
</svg>
