<svg width="24" height="24" viewBox="0 0 24 24" fill="none" xmlns="http://www.w3.org/2000/svg">
<path d="M19.113 15.1962V8.8042C19.113 8.6257 19.0652 8.45044 18.9746 8.29664C18.884 8.14284 18.7539 8.01609 18.5978 7.92956C18.4416 7.84302 18.2652 7.79986 18.0868 7.80454C17.9083 7.80923 17.7344 7.86159 17.583 7.9562L12.47 11.1522C12.3262 11.2421 12.2076 11.3671 12.1254 11.5154C12.0431 11.6638 12 11.8306 12 12.0002C12 12.1698 12.0431 12.3366 12.1254 12.485C12.2076 12.6333 12.3262 12.7583 12.47 12.8482L17.583 16.0442C17.7344 16.1388 17.9083 16.1912 18.0868 16.1959C18.2652 16.2005 18.4416 16.1574 18.5978 16.0708C18.7539 15.9843 18.884 15.8576 18.9746 15.7038C19.0652 15.55 19.113 15.3747 19.113 15.1962ZM11.113 15.1962V8.8042C11.113 8.6257 11.0652 8.45044 10.9746 8.29664C10.884 8.14284 10.7539 8.01609 10.5978 7.92956C10.4416 7.84302 10.2652 7.79986 10.0868 7.80454C9.90831 7.80923 9.73438 7.86159 9.583 7.9562L4.47 11.1522C4.32618 11.2421 4.20758 11.3671 4.12536 11.5154C4.04314 11.6638 4 11.8306 4 12.0002C4 12.1698 4.04314 12.3366 4.12536 12.485C4.20758 12.6333 4.32618 12.7583 4.47 12.8482L9.583 16.0442C9.73438 16.1388 9.90831 16.1912 10.0868 16.1959C10.2652 16.2005 10.4416 16.1574 10.5978 16.0708C10.7539 15.9843 10.884 15.8576 10.9746 15.7038C11.0652 15.55 11.113 15.3747 11.113 15.1962Z" stroke="#CEFF00" stroke-width="2" stroke-linecap="round" stroke-linejoin="round"/>
</svg>
