<svg width="25" height="24" viewBox="0 0 25 24" fill="none" xmlns="http://www.w3.org/2000/svg">
<path d="M19.5517 15.1962V8.8042C19.5517 8.6257 19.5039 8.45044 19.4133 8.29664C19.3227 8.14284 19.1926 8.01609 19.0365 7.92956C18.8804 7.84302 18.7039 7.79986 18.5255 7.80454C18.347 7.80923 18.1731 7.86159 18.0217 7.9562L12.9087 11.1522C12.7649 11.2421 12.6463 11.3671 12.5641 11.5154C12.4819 11.6638 12.4387 11.8306 12.4387 12.0002C12.4387 12.1698 12.4819 12.3366 12.5641 12.485C12.6463 12.6333 12.7649 12.7583 12.9087 12.8482L18.0217 16.0442C18.1731 16.1388 18.347 16.1912 18.5255 16.1959C18.7039 16.2005 18.8804 16.1574 19.0365 16.0708C19.1926 15.9843 19.3227 15.8576 19.4133 15.7038C19.5039 15.55 19.5517 15.3747 19.5517 15.1962ZM11.5517 15.1962V8.8042C11.5517 8.6257 11.5039 8.45044 11.4133 8.29664C11.3227 8.14284 11.1926 8.01609 11.0365 7.92956C10.8804 7.84302 10.7039 7.79986 10.5255 7.80454C10.347 7.80923 10.1731 7.86159 10.0217 7.9562L4.90872 11.1522C4.7649 11.2421 4.6463 11.3671 4.56408 11.5154C4.48186 11.6638 4.43872 11.8306 4.43872 12.0002C4.43872 12.1698 4.48186 12.3366 4.56408 12.485C4.6463 12.6333 4.7649 12.7583 4.90872 12.8482L10.0217 16.0442C10.1731 16.1388 10.347 16.1912 10.5255 16.1959C10.7039 16.2005 10.8804 16.1574 11.0365 16.0708C11.1926 15.9843 11.3227 15.8576 11.4133 15.7038C11.5039 15.55 11.5517 15.3747 11.5517 15.1962Z" stroke="#EA8D00" stroke-width="2" stroke-linecap="round" stroke-linejoin="round"/>
</svg>
