<svg width="50" height="50" viewBox="0 0 107 108" fill="none" xmlns="http://www.w3.org/2000/svg">
<g clip-path="url(#clip0_161_2)">
<path d="M95.1508 38.4675L73.3324 16.4433C72.2966 15.4003 70.8933 14.8146 69.4303 14.8146C67.9673 14.8146 66.564 15.4003 65.5282 16.4433L17.2099 65.2175C16.1753 66.2632 15.5941 67.6807 15.5941 69.1586C15.5941 70.6365 16.1753 72.054 17.2099 73.0998L39.0282 95.124C39.5409 95.6416 40.1495 96.0522 40.8194 96.3324C41.4894 96.6126 42.2074 96.7568 42.9325 96.7568C43.6576 96.7568 44.3757 96.6126 45.0456 96.3324C45.7155 96.0522 46.3242 95.6416 46.8368 95.124L95.1552 46.3498C96.1898 45.304 96.7709 43.8866 96.7709 42.4086C96.7709 40.9307 96.1853 39.5132 95.1508 38.4675ZM62.8075 25.4982L86.1849 49.0961L51.7658 83.8399L28.3884 60.242L62.8075 25.4982ZM43.7143 91.9719C43.6117 92.0757 43.4898 92.1581 43.3557 92.2143C43.2216 92.2704 43.0777 92.2994 42.9325 92.2994C42.7873 92.2994 42.6435 92.2704 42.5093 92.2143C42.3752 92.1581 42.2533 92.0757 42.1508 91.9719L35.6583 85.4182L37.8666 83.189L29.0333 74.2723L26.8249 76.5015L20.3324 69.9477C20.2296 69.8442 20.148 69.7212 20.0924 69.5858C20.0367 69.4504 20.008 69.3052 20.008 69.1586C20.008 69.012 20.0367 68.8669 20.0924 68.7314C20.148 68.596 20.2296 68.473 20.3324 68.3695L25.2658 63.394L48.6433 86.992L43.7143 91.9719ZM92.0326 43.1978L89.3075 45.9441L65.9301 22.3461L68.6508 19.5998C68.7533 19.496 68.8752 19.4136 69.0093 19.3575C69.1435 19.3013 69.2873 19.2723 69.4325 19.2723C69.5777 19.2723 69.7216 19.3013 69.8557 19.3575C69.9898 19.4136 70.1117 19.496 70.2143 19.5998L92.0326 41.624C92.2389 41.8329 92.3548 42.1159 92.3548 42.4109C92.3548 42.7059 92.2389 42.9888 92.0326 43.1978ZM98.1894 71.1292V80.3045C98.1859 83.8506 96.7888 87.2506 94.3047 89.7581C91.8206 92.2656 88.4525 93.6759 84.9394 93.6795H70.3998L77.621 100.964L74.4984 104.116L61.9198 91.4235L74.4984 78.7262L77.621 81.8783L70.3468 89.2211H84.9394C87.2814 89.2188 89.5269 88.2786 91.183 86.6069C92.839 84.9352 93.7704 82.6686 93.7728 80.3045V71.1292H98.1894ZM18.6409 40.1795H14.2242V31.2628C14.2277 27.7166 15.6248 24.3167 18.1089 21.8092C20.593 19.3016 23.9611 17.8913 27.4742 17.8878H42.0183L34.744 10.5494L37.8666 7.39734L50.4453 20.0902L37.871 32.7786L34.7484 29.6266L41.9608 22.3461H27.4742C25.1322 22.3485 22.8867 23.2887 21.2307 24.9604C19.5746 26.6321 18.6432 28.8987 18.6409 31.2628V40.1795Z" fill="#CEFF00"/>
</g>
<defs>
<clipPath id="clip0_161_2">
<rect width="106" height="107" fill="white" transform="translate(0.974182 0.0544434)"/>
</clipPath>
</defs>
</svg>
