<svg width="36" height="36" viewBox="0 0 36 36" fill="none" xmlns="http://www.w3.org/2000/svg">
<g clip-path="url(#clip0_18_22)">
<path d="M29.7282 7.59815C29.7282 7.59815 29.6991 7.44038 29.6096 7.38323C29.52 7.32608 29.4229 7.31501 29.4229 7.31501L26.6145 7.10603L24.5482 5.05163C24.4698 4.99188 24.3793 4.95695 24.2872 4.93815C24.0672 4.89549 23.7713 4.9467 23.7166 4.95948L22.6446 5.29123C22.179 3.91652 21.5428 2.93748 20.7446 2.37119C20.1544 1.95413 19.5041 1.7768 18.8057 1.82965C18.659 1.63434 18.4974 1.46379 18.3204 1.32051C17.5456 0.694538 16.5462 0.597331 15.3505 1.03059C11.7648 2.33284 10.2425 6.97984 9.69375 9.30119L6.56863 10.2692C6.56863 10.2692 5.83261 10.479 5.65993 10.6853C5.47023 10.9121 5.43394 11.5262 5.43394 11.5262L2.78296 31.9716L22.7546 35.6968L33.5368 33.3635L29.7282 7.59815ZM18.6607 6.52532L15.2076 7.59391C15.6651 5.80215 16.5444 3.97114 18.2253 3.25733C18.5745 4.17157 18.6709 5.42261 18.6607 6.52532ZM15.7602 2.15975C16.4907 1.89452 17.0518 1.90641 17.4739 2.19127C15.2208 3.21891 14.2371 5.80809 13.8124 8.02622L11.0476 8.88242C11.665 6.6498 13.0427 3.14645 15.7602 2.15975ZM17.6953 17.2273C17.5371 17.1506 17.3503 17.0687 17.1392 16.9911C16.9299 16.9127 16.6966 16.8384 16.4438 16.777C16.1934 16.7157 15.924 16.6662 15.64 16.6372C15.3586 16.6073 15.063 16.5979 14.7569 16.6158C14.476 16.6329 14.2214 16.6832 13.9975 16.7634C13.7749 16.8418 13.5822 16.951 13.4236 17.0866C13.265 17.2214 13.14 17.3826 13.0518 17.5685C12.9643 17.7536 12.9127 17.9616 12.9029 18.1928C12.8953 18.3642 12.9222 18.5279 12.9822 18.6873C13.0423 18.8477 13.1366 19.0046 13.2645 19.1598C13.3933 19.3167 13.5562 19.4719 13.7544 19.6306C13.9536 19.7918 14.1886 19.9538 14.4597 20.1235C14.84 20.3674 15.2289 20.642 15.5986 20.9567C15.9739 21.2765 16.3286 21.6373 16.6335 22.0483C16.9423 22.4636 17.1989 22.9293 17.3721 23.4512C17.5461 23.9782 17.6352 24.559 17.6071 25.1986C17.5615 26.245 17.3321 27.1472 16.953 27.8951C16.5786 28.6337 16.0618 29.2136 15.4392 29.6349C14.8303 30.0459 14.125 30.3009 13.3579 30.4032C12.613 30.503 11.8143 30.4587 10.9905 30.277C10.9845 30.2761 10.9777 30.2736 10.9709 30.2719C10.9645 30.271 10.9581 30.2693 10.9517 30.2685C10.9453 30.2668 10.9389 30.265 10.9321 30.2634C10.9257 30.2625 10.9192 30.2608 10.9125 30.2591C10.5262 30.1654 10.1534 30.0442 9.80333 29.9018C9.45839 29.7628 9.13471 29.6041 8.83967 29.4328C8.54887 29.2631 8.28534 29.0814 8.05723 28.893C7.83164 28.7062 7.63976 28.5143 7.48923 28.3207L8.39786 25.3052C8.5514 25.4348 8.73897 25.5824 8.9526 25.7316C9.16834 25.8842 9.41102 26.0395 9.67064 26.1853C9.93328 26.332 10.2139 26.4676 10.5026 26.5784C10.7951 26.6902 11.0961 26.7771 11.3946 26.8206C11.6581 26.859 11.8935 26.8513 12.0995 26.8053C12.3071 26.7583 12.484 26.6723 12.6291 26.5537C12.7749 26.4368 12.8879 26.2875 12.9668 26.1162C13.0457 25.9431 13.0905 25.7495 13.099 25.5422C13.1084 25.3341 13.0896 25.1388 13.0371 24.9495C12.9851 24.7594 12.8999 24.576 12.7774 24.3918C12.655 24.2084 12.4964 24.0242 12.2956 23.834C12.0969 23.6456 11.8586 23.4511 11.5763 23.2448C11.2288 22.9855 10.903 22.705 10.6109 22.3997C10.3227 22.0977 10.0669 21.7711 9.85747 21.4172C9.65027 21.0658 9.48696 20.6864 9.38121 20.2736C9.27587 19.8634 9.22733 19.4191 9.2477 18.9347C9.28353 18.1254 9.4452 17.3791 9.71597 16.708C9.98968 16.0291 10.3773 15.4202 10.8634 14.8957C11.3593 14.361 11.9623 13.9098 12.6573 13.5628C13.3724 13.2054 14.1898 12.9547 15.0959 12.8362C15.5163 12.7807 15.9198 12.7551 16.301 12.7535C16.6881 12.7518 17.0519 12.7748 17.3866 12.8175C17.726 12.8609 18.0352 12.924 18.3094 13.0016C18.5857 13.08 18.8253 13.1722 19.0228 13.2728L17.6953 17.2273ZM19.8576 6.15522C19.8559 6.01967 19.8525 5.88233 19.8474 5.74247C19.8073 4.66793 19.6614 3.76305 19.4133 3.02963C19.6837 3.0569 19.9293 3.14645 20.1536 3.30511C20.7787 3.74774 21.2289 4.63887 21.5462 5.63241L19.8576 6.15522Z" fill="#555151"/>
</g>
<defs>
<clipPath id="clip0_18_22">
<rect width="35" height="35" fill="white" transform="translate(0.659851 0.730957)"/>
</clipPath>
</defs>
</svg>
