<svg width="19" height="19" viewBox="0 0 42 43" fill="none" xmlns="http://www.w3.org/2000/svg">
<g clip-path="url(#clip0_8_59)">
<path d="M21.002 32.2656C26.8013 32.2656 31.5027 27.5643 31.5027 21.7649C31.5027 15.9656 26.8013 11.2643 21.002 11.2643C15.2026 11.2643 10.5013 15.9656 10.5013 21.7649C10.5013 27.5643 15.2026 32.2656 21.002 32.2656Z" fill="#EA8D00"/>
<path fill-rule="evenodd" clip-rule="evenodd" d="M7.87566 21.7597C7.87566 20.3087 6.70163 19.1347 5.25066 19.1347H2.625C1.17403 19.1347 0 20.3087 0 21.7597C0 23.2107 1.17403 24.3847 2.625 24.3847H5.25C6.70162 24.3847 7.87566 23.2107 7.87566 21.7597Z" fill="#EA8D00"/>
<path fill-rule="evenodd" clip-rule="evenodd" d="M8.00889 31.0404L6.15039 32.8995C5.12467 33.9246 5.12467 35.5862 6.15039 36.6113C7.17546 37.6363 8.83708 37.6363 9.8628 36.6113L11.722 34.7528C12.747 33.7277 12.747 32.0654 11.722 31.0404C10.6956 30.0147 9.03461 30.0147 8.00889 31.0404Z" fill="#EA8D00"/>
<path fill-rule="evenodd" clip-rule="evenodd" d="M21.002 34.886C19.551 34.886 18.377 36.06 18.377 37.511V40.1367C18.377 41.5876 19.551 42.7617 21.002 42.7617C22.4529 42.7617 23.627 41.5876 23.627 40.1367L23.6243 37.511C23.627 36.06 22.4503 34.886 21.002 34.886Z" fill="#EA8D00"/>
<path fill-rule="evenodd" clip-rule="evenodd" d="M33.9925 31.043C32.9694 30.0153 31.3078 30.0153 30.2827 31.0404C29.2577 32.0654 29.2577 33.7277 30.2827 34.7528L32.1392 36.6087C33.1643 37.639 34.8259 37.6337 35.851 36.6087C36.8761 35.5836 36.8787 33.9246 35.851 32.8969L33.9925 31.043Z" fill="#EA8D00"/>
<path fill-rule="evenodd" clip-rule="evenodd" d="M39.379 19.1347L36.7481 19.1399C35.3023 19.1347 34.1283 20.3087 34.1283 21.7597C34.1231 23.2107 35.3023 24.3847 36.7481 24.3847H39.3737C40.8299 24.3899 41.9987 23.2107 41.9987 21.7597C42.0013 20.3113 40.8299 19.1347 39.379 19.1347Z" fill="#EA8D00"/>
<path fill-rule="evenodd" clip-rule="evenodd" d="M33.9925 12.4816L35.8484 10.6251C36.8813 9.5974 36.8734 7.9384 35.8484 6.91268C34.8253 5.88434 33.1643 5.88434 32.1392 6.91006L30.2827 8.77118C29.2577 9.79165 29.2577 11.4526 30.2827 12.4783C31.3025 13.51 32.9694 13.5047 33.9925 12.4816Z" fill="#EA8D00"/>
<path fill-rule="evenodd" clip-rule="evenodd" d="M21.002 8.63338C22.4503 8.64388 23.627 7.45935 23.627 6.01363V3.38863C23.627 1.93241 22.4529 0.763628 21.002 0.763628C19.551 0.758378 18.377 1.93241 18.377 3.38403L18.3822 6.01428C18.377 7.45935 19.551 8.63338 21.002 8.63338Z" fill="#EA8D00"/>
<path fill-rule="evenodd" clip-rule="evenodd" d="M8.01408 12.479C9.03455 13.5041 10.6909 13.5041 11.7193 12.4764C12.7522 11.4585 12.747 9.79231 11.7245 8.76922L9.86798 6.91334C8.83767 5.88237 7.1813 5.89025 6.15558 6.91334C5.12198 7.93644 5.12198 9.59741 6.1477 10.6231L8.01408 12.479Z" fill="#EA8D00"/>
</g>
<defs>
<clipPath id="clip0_8_59">
<rect width="42" height="42" fill="white" transform="translate(0 0.761658)"/>
</clipPath>
</defs>
</svg>
