<svg width="36" height="36" viewBox="0 0 36 36" fill="none" xmlns="http://www.w3.org/2000/svg">
<g clip-path="url(#clip0_115_2)">
<path d="M28.9013 0.568604H6.2971C2.87002 0.568604 0.0991821 3.33944 0.0991821 6.76652V28.4957C0.0991821 31.9228 2.87002 34.6936 6.2971 34.6936H28.9013C32.3283 34.6936 35.0992 31.9228 35.0992 28.4957V6.76652C35.0992 3.33944 32.3283 0.568604 28.9013 0.568604ZM33.6263 27.9269C33.6295 28.6225 33.4954 29.3119 33.2316 29.9555C32.9678 30.5991 32.5796 31.1843 32.0891 31.6775C31.5986 32.1706 31.0156 32.5621 30.3734 32.8295C29.7313 33.0968 29.0427 33.2347 28.3471 33.2353H6.85127C3.9346 33.2353 1.55752 30.8582 1.55752 27.9415V7.32069C1.55752 4.40402 3.9346 2.02694 6.85127 2.02694H28.3325C29.7365 2.02694 31.083 2.58467 32.0758 3.57744C33.0685 4.57021 33.6263 5.9167 33.6263 7.32069V27.9269ZM13.9388 16.5374L18.0221 24.3832C18.095 24.4999 18.0513 24.6165 17.9346 24.6165H15.3971C15.2367 24.6165 15.1638 24.5728 15.0908 24.4269C14.1575 22.5019 13.2096 20.5769 12.2325 18.5061H12.2033C11.3283 20.4603 10.3658 22.5165 9.43252 24.4415C9.3596 24.5582 9.28668 24.6019 9.17002 24.6019H6.76377C6.61793 24.6019 6.60335 24.4853 6.67627 24.3978L10.6721 16.7853L6.80752 9.08527C6.72002 8.9686 6.80752 8.8811 6.89502 8.8811H9.40335C9.54918 8.8811 9.60752 8.91027 9.66585 9.04152C10.5846 10.9665 11.5179 12.9499 12.3929 14.8894H12.4221C13.2679 12.9644 14.2013 10.9665 15.1054 9.0561C15.1783 8.93944 15.2221 8.86652 15.3679 8.86652H17.7158C17.8325 8.86652 17.8763 8.95402 17.8033 9.07069L13.9388 16.5374ZM18.7367 18.9144C18.7367 15.5165 20.9971 12.8624 24.5846 12.8624C24.8909 12.8624 25.0513 12.8624 25.3429 12.8915V9.02694C25.3429 8.93944 25.4158 8.8811 25.4888 8.8811H27.7929C27.9096 8.8811 27.9388 8.92485 27.9388 8.99777V22.3853C27.9388 22.779 27.9388 23.2749 28.0117 23.8144C28.0117 23.9019 27.9825 23.9311 27.895 23.9749C26.67 24.5582 25.3867 24.8207 24.1617 24.8207C20.9971 24.8353 18.7367 22.8811 18.7367 18.9144ZM25.3429 15.1811C25.1388 15.0936 24.8471 15.0353 24.4971 15.0353C22.6596 15.0353 21.3763 16.4499 21.3763 18.7978C21.3763 21.4811 22.6888 22.5603 24.3367 22.5603C24.6867 22.5603 25.0658 22.5165 25.3429 22.3999V15.1811Z" fill="#555151"/>
</g>
<defs>
<clipPath id="clip0_115_2">
<rect width="35" height="35" fill="white" transform="translate(0.0991821 0.131104)"/>
</clipPath>
</defs>
</svg>
